<svg width="21" height="16" viewBox="0 0 21 16" fill="none" xmlns="http://www.w3.org/2000/svg">
<path d="M18.0695 3.99704C18.0825 4.17204 18.0825 4.34604 18.0825 4.52004C18.0825 9.84504 14.0295 15.981 6.62252 15.981C4.34052 15.981 2.22052 15.32 0.436523 14.172C0.760523 14.209 1.07252 14.222 1.40952 14.222C3.29252 14.222 5.02552 13.586 6.41052 12.501C4.63952 12.464 3.15552 11.304 2.64352 9.70804C2.89252 9.74504 3.14252 9.77004 3.40452 9.77004C3.76552 9.77004 4.12852 9.72004 4.46552 9.63304C2.61852 9.25904 1.23552 7.63804 1.23552 5.68004V5.63004C1.77252 5.92904 2.39552 6.11604 3.05552 6.14104C1.97052 5.41904 1.25952 4.18404 1.25952 2.78704C1.25952 2.03904 1.45852 1.35304 1.80752 0.755043C3.79052 3.19804 6.77152 4.79504 10.1135 4.97004C10.0515 4.67004 10.0135 4.35904 10.0135 4.04704C10.0135 1.82704 11.8095 0.019043 14.0415 0.019043C15.2015 0.019043 16.2485 0.505043 16.9845 1.29104C17.8945 1.11604 18.7665 0.779043 19.5405 0.318043C19.2415 1.25304 18.6045 2.03904 17.7695 2.53804C18.5805 2.45004 19.3665 2.22604 20.0885 1.91404C19.5405 2.71204 18.8555 3.42304 18.0695 3.99704Z" fill="white"/>
</svg>
