<svg width="33" height="32" viewBox="0 0 33 32" fill="none" xmlns="http://www.w3.org/2000/svg">
<path d="M26.5 4.25H23.25V3C23.25 2.80109 23.171 2.61032 23.0303 2.46967C22.8897 2.32902 22.6989 2.25 22.5 2.25C22.3011 2.25 22.1103 2.32902 21.9697 2.46967C21.829 2.61032 21.75 2.80109 21.75 3V4.25H11.25V3C11.25 2.80109 11.171 2.61032 11.0303 2.46967C10.8897 2.32902 10.6989 2.25 10.5 2.25C10.3011 2.25 10.1103 2.32902 9.96967 2.46967C9.82902 2.61032 9.75 2.80109 9.75 3V4.25H6.5C6.03587 4.25 5.59075 4.43437 5.26256 4.76256C4.93437 5.09075 4.75 5.53587 4.75 6V26C4.75 26.4641 4.93437 26.9092 5.26256 27.2374C5.59075 27.5656 6.03587 27.75 6.5 27.75H26.5C26.9641 27.75 27.4092 27.5656 27.7374 27.2374C28.0656 26.9092 28.25 26.4641 28.25 26V6C28.25 5.53587 28.0656 5.09075 27.7374 4.76256C27.4092 4.43437 26.9641 4.25 26.5 4.25ZM6.5 5.75H9.75V7C9.75 7.19891 9.82902 7.38968 9.96967 7.53033C10.1103 7.67098 10.3011 7.75 10.5 7.75C10.6989 7.75 10.8897 7.67098 11.0303 7.53033C11.171 7.38968 11.25 7.19891 11.25 7V5.75H21.75V7C21.75 7.19891 21.829 7.38968 21.9697 7.53033C22.1103 7.67098 22.3011 7.75 22.5 7.75C22.6989 7.75 22.8897 7.67098 23.0303 7.53033C23.171 7.38968 23.25 7.19891 23.25 7V5.75H26.5C26.5663 5.75 26.6299 5.77634 26.6768 5.82322C26.7237 5.87011 26.75 5.9337 26.75 6V10.25H6.25V6C6.25 5.9337 6.27634 5.87011 6.32322 5.82322C6.37011 5.77634 6.4337 5.75 6.5 5.75ZM26.5 26.25H6.5C6.4337 26.25 6.37011 26.2237 6.32322 26.1768C6.27634 26.1299 6.25 26.0663 6.25 26V11.75H26.75V26C26.75 26.0663 26.7237 26.1299 26.6768 26.1768C26.6299 26.2237 26.5663 26.25 26.5 26.25Z" fill="#39639B"/>
</svg>
