<svg width="25" height="24" viewBox="0 0 25 24" fill="none" xmlns="http://www.w3.org/2000/svg">
<path d="M21.1006 4.5H3.10059C2.90167 4.5 2.71091 4.57902 2.57026 4.71967C2.4296 4.86032 2.35059 5.05109 2.35059 5.25V18C2.35059 18.3978 2.50862 18.7794 2.78993 19.0607C3.07123 19.342 3.45276 19.5 3.85059 19.5H20.3506C20.7484 19.5 21.1299 19.342 21.4112 19.0607C21.6926 18.7794 21.8506 18.3978 21.8506 18V5.25C21.8506 5.05109 21.7716 4.86032 21.6309 4.71967C21.4903 4.57902 21.2995 4.5 21.1006 4.5ZM12.1006 12.4828L5.02902 6H19.1721L12.1006 12.4828ZM9.35465 12L3.85059 17.0447V6.95531L9.35465 12ZM10.4646 13.0172L11.5896 14.0531C11.728 14.1801 11.909 14.2506 12.0968 14.2506C12.2847 14.2506 12.4657 14.1801 12.604 14.0531L13.729 13.0172L19.1665 18H5.02902L10.4646 13.0172ZM14.8465 12L20.3506 6.95438V17.0456L14.8465 12Z" fill="white"/>
</svg>
