<svg width="57" height="56" viewBox="0 0 57 56" fill="none" xmlns="http://www.w3.org/2000/svg">
<rect x="0.400391" width="55.9998" height="56" rx="27.9999" fill="#27337B"/>
<path d="M6.71423 14.5019C6.8456 14.5019 6.96928 14.5529 7.06221 14.6459C7.19498 14.7786 7.2397 14.9722 7.17891 15.1518L7.10134 15.3817L6.87145 15.4592C6.81974 15.4767 6.76663 15.4851 6.71143 15.4851C6.58006 15.4851 6.45708 15.4341 6.36484 15.3418C6.17268 15.1497 6.17268 14.8373 6.36484 14.6452C6.45918 14.5536 6.58286 14.5019 6.71423 14.5019ZM32.178 37.6933L32.3953 37.8009C32.5651 37.8855 32.6707 38.0539 32.6707 38.2419C32.6707 38.5137 32.4498 38.7345 32.178 38.7345C31.9062 38.7345 31.6854 38.5137 31.6854 38.2419C31.6854 38.0546 31.7909 37.8855 31.9607 37.8009L32.178 37.6933ZM6.71423 13.7333C6.3914 13.7333 6.06857 13.8563 5.8226 14.1029C5.32997 14.5956 5.32997 15.3942 5.8226 15.8862C6.06856 16.1321 6.39 16.2544 6.71213 16.2544C6.84909 16.2544 6.98605 16.2321 7.11672 16.188L15.2685 24.3399H27.2175L31.6183 28.7407V37.1127C31.2025 37.3188 30.9161 37.7464 30.9161 38.2419C30.9161 38.9385 31.4807 39.5031 32.1773 39.5031C32.874 39.5031 33.4386 38.9385 33.4386 38.2419C33.4386 37.7464 33.1521 37.3188 32.7363 37.1127V28.2774L27.6808 23.2218H15.7318L7.90772 15.3977C8.05586 14.9582 7.95594 14.453 7.60586 14.1029C7.35989 13.857 7.03706 13.7333 6.71423 13.7333Z" fill="white"/>
<path d="M18.0162 3.79608C18.288 3.79608 18.5088 4.01689 18.5088 4.28871C18.5088 4.47598 18.4033 4.64508 18.2335 4.72893L18.0162 4.83655L17.7988 4.72893C17.629 4.64438 17.5235 4.47598 17.5235 4.28871C17.5235 4.01689 17.745 3.79608 18.0162 3.79608ZM35.7649 41.6064L35.9822 41.714C36.152 41.7986 36.2575 41.967 36.2575 42.1542C36.2575 42.4261 36.0367 42.6469 35.7649 42.6469C35.493 42.6469 35.2722 42.4261 35.2722 42.1542C35.2722 41.967 35.3777 41.7979 35.5475 41.714L35.7649 41.6064ZM18.0162 3.02744C17.3195 3.02744 16.7549 3.59204 16.7549 4.28871C16.7549 4.78414 17.0414 5.21178 17.4571 5.41792V15.8435L21.7036 19.9383H29.1049L35.2059 26.0393V41.0264C34.7901 41.2326 34.5036 41.6602 34.5036 42.1556C34.5036 42.8523 35.0682 43.4169 35.7649 43.4169C36.4615 43.4169 37.0261 42.8523 37.0261 42.1556C37.0261 41.6602 36.7396 41.2326 36.3239 41.0264V25.576L29.5675 18.8196H22.155L18.5752 15.3677V5.41722C18.9909 5.21108 19.2774 4.78344 19.2774 4.28801C19.2774 3.59204 18.7128 3.02744 18.0162 3.02744Z" fill="white"/>
<path d="M49.9661 14.7465C50.0975 14.7465 50.2211 14.7975 50.3141 14.8904C50.407 14.9833 50.458 15.107 50.458 15.2384C50.458 15.3698 50.407 15.4934 50.3141 15.5864C50.2218 15.6786 50.0989 15.7296 49.9675 15.7296C49.913 15.7296 49.8592 15.7205 49.8075 15.7038L49.5776 15.6262L49.5 15.3963C49.4399 15.2167 49.4846 15.0232 49.6167 14.8904C49.7111 14.7982 49.8347 14.7465 49.9661 14.7465ZM39.3511 45.24L39.5684 45.3476C39.7382 45.4321 39.8437 45.6005 39.8437 45.7878C39.8437 46.0596 39.6229 46.2804 39.3511 46.2804C39.0793 46.2804 38.8585 46.0596 38.8585 45.7878C38.8585 45.6005 38.964 45.4314 39.1338 45.3469L39.3511 45.24ZM49.9661 13.9778C49.6433 13.9778 49.3204 14.1008 49.0745 14.3475C48.7244 14.6975 48.6245 15.2028 48.7726 15.6423L42.8219 21.593V29.1397L38.7921 33.1695V44.66C38.3763 44.8661 38.0898 45.2938 38.0898 45.7892C38.0898 46.4859 38.6545 47.0505 39.3511 47.0505C40.0478 47.0505 40.6124 46.4859 40.6124 45.7892C40.6124 45.2938 40.3259 44.8661 39.9101 44.66V33.6321L43.9399 29.6023V22.0556L49.5629 16.4326C49.6943 16.4766 49.8312 16.499 49.9675 16.499C50.2896 16.499 50.6118 16.3767 50.857 16.1307C51.3497 15.6381 51.3497 14.8394 50.857 14.3475C50.6118 14.1015 50.2889 13.9778 49.9661 13.9778Z" fill="white"/>
<path d="M10.2425 9.27298C10.3739 9.27298 10.4976 9.32399 10.5905 9.41692C10.7233 9.54969 10.768 9.74325 10.7072 9.92283L10.6297 10.1527L10.4005 10.2303C10.3488 10.2478 10.2957 10.2561 10.2411 10.2561C10.1098 10.2561 9.9868 10.2051 9.89456 10.1129C9.80163 10.02 9.75062 9.89628 9.75062 9.76491C9.75062 9.63354 9.80163 9.50986 9.89456 9.41693C9.9875 9.32399 10.1112 9.27298 10.2425 9.27298ZM17.2659 19.2535C17.3972 19.2535 17.5202 19.3045 17.6124 19.3967C17.7054 19.4897 17.7564 19.6133 17.7564 19.7447C17.7564 19.8761 17.7054 19.9998 17.6124 20.0927C17.5195 20.1856 17.3958 20.2367 17.2645 20.2367C17.1331 20.2367 17.0094 20.1856 16.9165 20.0927C16.7837 19.9599 16.739 19.7664 16.7998 19.5868L16.8773 19.3569L17.1072 19.2793C17.1576 19.2619 17.2114 19.2535 17.2659 19.2535ZM10.2425 8.50433C9.91972 8.50433 9.59689 8.62732 9.35092 8.87398C8.85829 9.36661 8.85829 10.1653 9.35092 10.6572C9.59689 10.9032 9.91832 11.0255 10.2405 11.0255C10.3774 11.0255 10.5144 11.0031 10.645 10.9591L12.5646 12.8786V15.8365L16.0696 19.3415C15.9214 19.7811 16.0214 20.2863 16.3714 20.6363C16.6174 20.8823 16.9402 21.006 17.2631 21.006C17.5859 21.006 17.9087 20.883 18.1547 20.6363C18.6473 20.1437 18.6473 19.345 18.1547 18.8531C17.9087 18.6071 17.5873 18.4848 17.2652 18.4848C17.1282 18.4848 16.9913 18.5072 16.8606 18.5512L13.6833 15.3739V12.416L11.436 10.1688C11.5842 9.72928 11.4843 9.22407 11.1342 8.87398C10.8882 8.62732 10.5654 8.50433 10.2425 8.50433Z" fill="white"/>
<path d="M3.06206 25.1784C3.33388 25.1784 3.55469 25.3992 3.55469 25.671C3.55469 25.8583 3.44917 26.0274 3.27937 26.1112L3.06206 26.2188L2.84474 26.1112C2.67494 26.0274 2.56942 25.8583 2.56942 25.671C2.56942 25.3992 2.79093 25.1784 3.06206 25.1784ZM7.20366 34.3469C7.33502 34.3469 7.45801 34.3979 7.55024 34.4902C7.64318 34.5831 7.69419 34.7068 7.69419 34.8381C7.69419 34.9695 7.64318 35.0932 7.55024 35.1861C7.45731 35.2791 7.33363 35.3301 7.20226 35.3301C7.07089 35.3301 6.94721 35.2791 6.85427 35.1861C6.72151 35.0534 6.67679 34.8598 6.73758 34.6802L6.81514 34.4503L7.04504 34.3728C7.09535 34.3553 7.14915 34.3469 7.20366 34.3469ZM3.06206 24.4097C2.36538 24.4097 1.80078 24.9743 1.80078 25.671C1.80078 26.1664 2.08728 26.5941 2.50304 26.8002V30.9306L6.00806 34.4357C5.85992 34.8752 5.95985 35.3804 6.30993 35.7305C6.55589 35.9764 6.87872 36.1001 7.20156 36.1001C7.52439 36.1001 7.84722 35.9771 8.09319 35.7305C8.58582 35.2378 8.58582 34.4391 8.09319 33.9472C7.84722 33.7012 7.52579 33.579 7.20365 33.579C7.0667 33.579 6.92974 33.6013 6.79907 33.6453L3.62177 30.468V26.8009C4.03754 26.5948 4.32403 26.1671 4.32403 25.6717C4.32333 24.9743 3.75873 24.4097 3.06206 24.4097Z" fill="white"/>
<path d="M42.0532 6.31164C42.325 6.31164 42.5458 6.53245 42.5458 6.80428C42.5458 6.99154 42.4403 7.16065 42.2705 7.2445L42.0532 7.35211L41.8359 7.2445C41.6661 7.16065 41.5606 6.99154 41.5606 6.80428C41.5606 6.53245 41.7821 6.31164 42.0532 6.31164ZM39.5376 26.3733L39.755 26.4809C39.9248 26.5647 40.0303 26.7338 40.0303 26.9211C40.0303 27.1929 39.8095 27.4137 39.5376 27.4137C39.2658 27.4137 39.045 27.1929 39.045 26.9211C39.045 26.7338 39.1505 26.5647 39.3203 26.4809L39.5376 26.3733ZM42.0532 5.543C41.3565 5.543 40.7919 6.1076 40.7919 6.80428C40.7919 7.2997 41.0784 7.72735 41.4942 7.93348V12.8584L38.9786 15.374V25.7933C38.5629 25.9994 38.2764 26.4271 38.2764 26.9225C38.2764 27.6192 38.841 28.1838 39.5376 28.1838C40.2343 28.1838 40.7989 27.6192 40.7989 26.9225C40.7989 26.4271 40.5124 25.9994 40.0967 25.7933V15.8365L42.6122 13.321V7.93278C43.028 7.72665 43.3145 7.299 43.3145 6.80358C43.3145 6.1076 42.7499 5.543 42.0532 5.543Z" fill="white"/>
<path d="M47.0845 10.085C47.3563 10.085 47.5771 10.3058 47.5771 10.5776C47.5771 10.7649 47.4716 10.934 47.3018 11.0178L47.0845 11.1255L46.8672 11.0178C46.6974 10.9333 46.5919 10.7649 46.5919 10.5776C46.5919 10.3058 46.8134 10.085 47.0845 10.085ZM44.2014 15.4802C44.2559 15.4802 44.3097 15.4893 44.3614 15.506L44.5913 15.5836L44.6689 15.8135C44.729 15.9931 44.6842 16.1866 44.5522 16.3194C44.4592 16.4123 44.3356 16.4633 44.2042 16.4633C44.0728 16.4633 43.9491 16.4123 43.8562 16.3194C43.664 16.1272 43.664 15.8149 43.8562 15.6227C43.9471 15.5305 44.07 15.4802 44.2014 15.4802ZM47.0845 9.31635C46.3878 9.31635 45.8232 9.88095 45.8232 10.5776C45.8232 11.073 46.1097 11.5007 46.5255 11.7068V12.8584L44.606 14.7779C44.4746 14.7339 44.3377 14.7115 44.2014 14.7115C43.8793 14.7115 43.5571 14.8338 43.3119 15.0798C42.8192 15.5724 42.8192 16.3711 43.3119 16.863C43.5578 17.109 43.8807 17.2327 44.2035 17.2327C44.5263 17.2327 44.8491 17.1097 45.0951 16.863C45.4452 16.513 45.5451 16.0077 45.397 15.5682L47.6442 13.321V11.7061C48.06 11.5 48.3465 11.0723 48.3465 10.5769C48.3458 9.88095 47.7812 9.31635 47.0845 9.31635Z" fill="white"/>
<path d="M37.0221 3.79608C37.294 3.79608 37.5148 4.01689 37.5148 4.28871C37.5148 4.47598 37.4092 4.64508 37.2394 4.72893L37.0221 4.83655L36.8048 4.72893C36.635 4.64438 36.5295 4.47598 36.5295 4.28871C36.5295 4.01689 36.751 3.79608 37.0221 3.79608ZM24.4478 13.8548C24.6351 13.8548 24.8042 13.9604 24.888 14.1302L24.9956 14.3475L24.888 14.5648C24.8035 14.7346 24.6351 14.8401 24.4478 14.8401C24.176 14.8401 23.9552 14.6193 23.9552 14.3475C23.9552 14.0757 24.176 13.8548 24.4478 13.8548ZM37.0221 3.02744C36.3255 3.02744 35.7609 3.59204 35.7609 4.28871C35.7609 4.78414 36.0473 5.21178 36.4631 5.41792V7.82727L30.5019 13.7885H25.577C25.3709 13.3727 24.9432 13.0862 24.4478 13.0862C23.7511 13.0862 23.1865 13.6508 23.1865 14.3475C23.1865 15.0441 23.7511 15.6088 24.4478 15.6088C24.9432 15.6088 25.3709 15.3223 25.577 14.9065H30.9652L37.5818 8.28986V5.41722C37.9976 5.21108 38.2841 4.78344 38.2841 4.28801C38.2834 3.59204 37.7188 3.02744 37.0221 3.02744Z" fill="white"/>
<path d="M29.11 2.16864C29.2414 2.16864 29.365 2.21965 29.458 2.31259C29.5907 2.44535 29.6355 2.63891 29.5747 2.81849L29.4971 3.04839L29.2672 3.12595C29.2155 3.14342 29.1624 3.15181 29.1072 3.15181C28.9758 3.15181 28.8528 3.1008 28.7606 3.00856C28.6677 2.91562 28.6167 2.79194 28.6167 2.66057C28.6167 2.5292 28.6677 2.40552 28.7606 2.31259C28.8535 2.21965 28.9786 2.16864 29.11 2.16864ZM24.4485 10.0815C24.6358 10.0815 24.8049 10.187 24.8887 10.3568L24.9963 10.5741L24.8887 10.7914C24.8042 10.9612 24.6358 11.0668 24.4485 11.0668C24.1767 11.0668 23.9559 10.8459 23.9559 10.5741C23.9559 10.3023 24.1767 10.0815 24.4485 10.0815ZM29.11 1.39999C28.7872 1.39999 28.4643 1.52298 28.2184 1.76964C27.7257 2.26227 27.7257 3.06097 28.2184 3.5529C28.4643 3.79886 28.7858 3.92115 29.1079 3.92115C29.2448 3.92115 29.3818 3.89879 29.5125 3.85477L32.4585 6.80077L29.2441 10.0151H25.577C25.3709 9.59934 24.9432 9.31284 24.4478 9.31284C23.7511 9.31284 23.1865 9.87745 23.1865 10.5741C23.1865 11.2708 23.7511 11.8354 24.4478 11.8354C24.9432 11.8354 25.3709 11.5489 25.577 11.1331H29.7074L34.0398 6.80077L30.3035 3.06446C30.4516 2.62494 30.3517 2.11973 30.0016 1.76964C29.7556 1.52368 29.4328 1.39999 29.11 1.39999Z" fill="white"/>
<path d="M22.8207 2.16864C22.952 2.16864 23.0757 2.21965 23.1687 2.31259C23.3014 2.44535 23.3462 2.63891 23.2854 2.81849L23.2078 3.04839L22.9779 3.12595C22.9262 3.14342 22.8731 3.15181 22.8179 3.15181C22.6865 3.15181 22.5635 3.1008 22.4713 3.00856C22.2791 2.8164 22.2791 2.50405 22.4713 2.31189C22.5656 2.22035 22.6893 2.16864 22.8207 2.16864ZM26.0706 5.41791C26.202 5.41791 26.325 5.46892 26.4172 5.56116C26.6094 5.75332 26.6094 6.06567 26.4172 6.25783C26.3243 6.35076 26.2006 6.40177 26.0692 6.40177C25.9379 6.40177 25.8142 6.35076 25.7213 6.25783C25.5885 6.12506 25.5438 5.9315 25.6046 5.75192L25.6821 5.52203L25.912 5.44446C25.9623 5.42629 26.0161 5.41791 26.0706 5.41791ZM22.8207 1.39999C22.4978 1.39999 22.175 1.52298 21.929 1.76964C21.4364 2.26227 21.4364 3.06097 21.929 3.5529C22.175 3.79886 22.4964 3.92115 22.8186 3.92115C22.9555 3.92115 23.0925 3.89879 23.2232 3.85477L24.8744 5.50595C24.7262 5.94548 24.8261 6.45069 25.1762 6.80077C25.4222 7.04674 25.745 7.17042 26.0678 7.17042C26.3907 7.17042 26.7135 7.04744 26.9595 6.80077C27.4521 6.30814 27.4521 5.50945 26.9595 5.01752C26.7135 4.77155 26.3921 4.64927 26.0699 4.64927C25.933 4.64927 25.796 4.67163 25.6654 4.71565L24.0142 3.06446C24.1623 2.62493 24.0624 2.11972 23.7123 1.76964C23.4663 1.52368 23.1435 1.39999 22.8207 1.39999Z" fill="white"/>
<path d="M36.1312 13.4887C36.2626 13.4887 36.3862 13.5397 36.4792 13.6326C36.6713 13.8248 36.6713 14.1371 36.4792 14.3293C36.3869 14.4215 36.264 14.4725 36.1326 14.4725C36.0781 14.4725 36.0243 14.4635 35.9726 14.4467L35.7427 14.3691L35.6651 14.1392C35.605 13.9596 35.6497 13.7661 35.7818 13.6333C35.8761 13.5404 35.9998 13.4887 36.1312 13.4887ZM36.1333 19.2535C36.2647 19.2535 36.3876 19.3045 36.4799 19.3968C36.672 19.5889 36.672 19.9013 36.4799 20.0934C36.3869 20.1864 36.2633 20.2374 36.1319 20.2374C36.0005 20.2374 35.8768 20.1864 35.7839 20.0934C35.6511 19.9607 35.6064 19.7671 35.6672 19.5875L35.7448 19.3576L35.9747 19.2801C36.025 19.2619 36.0788 19.2535 36.1333 19.2535ZM36.1312 12.72C35.8084 12.72 35.4855 12.843 35.2396 13.0897C34.8895 13.4398 34.7896 13.945 34.9377 14.3845L33.9482 15.374V18.3528L34.9377 19.3423C34.7896 19.7818 34.8895 20.287 35.2396 20.6371C35.4855 20.883 35.8084 21.0067 36.1312 21.0067C36.454 21.0067 36.7769 20.8837 37.0228 20.6371C37.5155 20.1444 37.5155 19.3457 37.0228 18.8538C36.7769 18.6079 36.4547 18.4856 36.1333 18.4856C35.9963 18.4856 35.8594 18.5079 35.7287 18.552L35.067 17.8902V15.8379L35.7287 15.1762C35.8601 15.2202 35.997 15.2426 36.1333 15.2426C36.4554 15.2426 36.7776 15.1203 37.0228 14.8743C37.5155 14.3817 37.5155 13.583 37.0228 13.0911C36.7769 12.8437 36.454 12.72 36.1312 12.72Z" fill="white"/>
<path d="M5.2113 19.7776C5.34266 19.7776 5.46635 19.8286 5.55928 19.9215C5.69205 20.0543 5.73677 20.2478 5.67598 20.4274L5.59841 20.6573L5.36852 20.7349C5.31681 20.7523 5.2637 20.7607 5.2085 20.7607C5.07713 20.7607 4.95415 20.7097 4.86191 20.6175C4.76897 20.5245 4.71796 20.4009 4.71796 20.2695C4.71796 20.1381 4.76897 20.0144 4.86191 19.9215C4.95485 19.8286 5.07993 19.7776 5.2113 19.7776ZM24.4407 27.6904C24.7125 27.6904 24.9333 27.9112 24.9333 28.183C24.9333 28.4549 24.7125 28.6757 24.4407 28.6757C24.2534 28.6757 24.0843 28.5702 24.0005 28.4004L23.8929 28.183L24.0005 27.9657C24.0843 27.7959 24.2534 27.6904 24.4407 27.6904ZM5.2113 19.0089C4.88847 19.0089 4.56564 19.1319 4.31967 19.3786C3.82704 19.8712 3.82704 20.6699 4.31967 21.1618C4.56564 21.4078 4.88707 21.5301 5.2092 21.5301C5.34616 21.5301 5.48312 21.5077 5.61379 21.4637L12.8922 28.742H23.3115C23.5176 29.1578 23.9453 29.4443 24.4407 29.4443C25.1374 29.4443 25.702 28.8797 25.702 28.183C25.702 27.4864 25.1374 26.9218 24.4407 26.9218C23.9453 26.9218 23.5176 27.2083 23.3115 27.624H13.3554L6.40479 20.6734C6.55293 20.2339 6.45301 19.7286 6.10292 19.3786C5.85696 19.1326 5.53413 19.0089 5.2113 19.0089Z" fill="white"/>
<path d="M52.4813 19.7776C52.6126 19.7776 52.7363 19.8286 52.8293 19.9215C53.0214 20.1137 53.0214 20.426 52.8293 20.6182C52.737 20.7104 52.614 20.7614 52.4827 20.7614C52.4282 20.7614 52.3744 20.7523 52.3227 20.7356L52.0928 20.658L52.0152 20.4281C51.9551 20.2485 51.9998 20.055 52.1319 19.9222C52.2262 19.8293 52.3499 19.7776 52.4813 19.7776ZM47.3866 27.631L47.6039 27.7386C47.7737 27.8232 47.8792 27.9916 47.8792 28.1795C47.8792 28.4514 47.6584 28.6722 47.3865 28.6722C47.1147 28.6722 46.8939 28.4514 46.8939 28.1795C46.8939 27.9923 46.9994 27.8232 47.1692 27.7386L47.3866 27.631ZM52.4813 19.0089C52.1584 19.0089 51.8356 19.1319 51.5896 19.3786C51.2396 19.7286 51.1396 20.2339 51.2878 20.6734L46.8282 25.1329V27.0503C46.4125 27.2565 46.126 27.6841 46.126 28.1795C46.126 28.8762 46.6906 29.4408 47.3873 29.4408C48.0839 29.4408 48.6485 28.8762 48.6485 28.1795C48.6485 27.6841 48.362 27.2565 47.9463 27.0503V25.5962L52.0788 21.4637C52.2102 21.5077 52.3471 21.5301 52.4834 21.5301C52.8055 21.5301 53.1276 21.4078 53.3729 21.1618C53.8655 20.6692 53.8655 19.8705 53.3729 19.3786C53.1269 19.1326 52.8041 19.0089 52.4813 19.0089Z" fill="white"/>
<path d="M28.2174 31.4673C28.4892 31.4673 28.71 31.6881 28.71 31.9599C28.71 32.1472 28.6045 32.3163 28.4347 32.4002L28.2174 32.5078L28 32.4002C27.8302 32.3156 27.7247 32.1472 27.7247 31.9599C27.7247 31.6881 27.9462 31.4673 28.2174 31.4673ZM28.2139 52.8461C28.4857 52.8461 28.7065 53.0669 28.7065 53.3388C28.7065 53.6106 28.4857 53.8314 28.2139 53.8314C28.0266 53.8314 27.8575 53.7259 27.7736 53.5561L27.666 53.3388L27.7736 53.1214C27.8575 52.9516 28.0266 52.8461 28.2139 52.8461ZM28.2174 30.6987C27.5207 30.6987 26.9561 31.2633 26.9561 31.9599C26.9561 32.4554 27.2426 32.883 27.6584 33.0892V48.0763L21.8369 53.8978H27.0854C27.2915 54.3135 27.7191 54.6 28.2146 54.6C28.9112 54.6 29.4758 54.0354 29.4758 53.3388C29.4758 52.6421 28.9112 52.0775 28.2146 52.0775C27.7191 52.0775 27.2915 52.364 27.0854 52.7797H24.5363L28.7771 48.5389V33.0885C29.1928 32.8823 29.4793 32.4547 29.4793 31.9592C29.4786 31.2633 28.914 30.6987 28.2174 30.6987Z" fill="white"/>
<path d="M53.7396 24.8088C53.8709 24.8088 53.9946 24.8598 54.0875 24.9528C54.2797 25.1449 54.2797 25.4573 54.0875 25.6494C53.9953 25.7417 53.8723 25.7927 53.741 25.7927C53.6864 25.7927 53.6326 25.7836 53.5809 25.7668L53.351 25.6893L53.2735 25.4594C53.2134 25.2798 53.2581 25.0862 53.3902 24.9535C53.4845 24.8605 53.6082 24.8088 53.7396 24.8088ZM43.358 47.7556L43.5753 47.8633C43.7451 47.9478 43.8506 48.1162 43.8506 48.3042C43.8506 48.576 43.6298 48.7968 43.358 48.7968C43.0861 48.7968 42.8653 48.576 42.8653 48.3042C42.8653 48.1169 42.9708 47.9478 43.1406 47.8633L43.358 47.7556ZM53.7396 24.0402C53.4167 24.0402 53.0939 24.1631 52.8479 24.4098C52.4978 24.7599 52.3979 25.2651 52.5461 25.7046L51.5566 26.6941V31.3975H46.8532L42.7989 35.4517V47.1757C42.3832 47.3818 42.0967 47.8094 42.0967 48.3049C42.0967 49.0015 42.6613 49.5662 43.358 49.5662C44.0546 49.5662 44.6192 49.0015 44.6192 48.3049C44.6192 47.8094 44.3327 47.3818 43.917 47.1757V35.915L47.3165 32.5155H52.6753V27.1567L53.3371 26.4949C53.4684 26.539 53.6054 26.5613 53.7417 26.5613C54.0638 26.5613 54.3859 26.439 54.6312 26.1931C55.1238 25.7004 55.1238 24.9017 54.6312 24.4098C54.3852 24.1638 54.0624 24.0402 53.7396 24.0402Z" fill="white"/>
<path d="M52.1119 35.2371C52.3837 35.2371 52.6045 35.458 52.6045 35.7298C52.6045 36.0016 52.3837 36.2224 52.1119 36.2224C51.9246 36.2224 51.7555 36.1169 51.6716 35.9471L51.564 35.7298L51.6716 35.5125C51.7555 35.3427 51.9246 35.2371 52.1119 35.2371ZM48.5705 43.2912C48.7019 43.2912 48.8249 43.3422 48.9171 43.4344C49.1093 43.6266 49.1093 43.9389 48.9171 44.1311C48.8242 44.224 48.7005 44.275 48.5691 44.275C48.4377 44.275 48.3141 44.224 48.2211 44.1311C48.0884 43.9983 48.0436 43.8047 48.1044 43.6252L48.182 43.3953L48.4119 43.3177C48.4622 43.2995 48.516 43.2912 48.5705 43.2912ZM52.1119 34.4685C51.6164 34.4685 51.1888 34.755 50.9827 35.1708H48.11L46.3848 36.896V42.3904L47.3742 43.3799C47.2261 43.8194 47.326 44.3246 47.6761 44.6747C47.9221 44.9207 48.2449 45.0444 48.5677 45.0444C48.8905 45.0444 49.2134 44.9214 49.4593 44.6747C49.952 44.1821 49.952 43.3834 49.4593 42.8915C49.2134 42.6455 48.8912 42.5232 48.5698 42.5232C48.4329 42.5232 48.2959 42.5456 48.1652 42.5896L47.5035 41.9279V37.36L48.5733 36.2902H50.9827C51.1888 36.706 51.6164 36.9925 52.1119 36.9925C52.8085 36.9925 53.3731 36.4279 53.3731 35.7312C53.3731 35.0345 52.8085 34.4685 52.1119 34.4685Z" fill="white"/>
<path d="M38.6489 50.6981C38.7803 50.6981 38.9033 50.7491 38.9955 50.8413C39.0884 50.9343 39.1394 51.058 39.1394 51.1893C39.1394 51.3207 39.0884 51.4444 38.9955 51.5373C38.9026 51.6302 38.7789 51.6813 38.6475 51.6813C38.5161 51.6813 38.3925 51.6302 38.2995 51.5373C38.1668 51.4045 38.122 51.211 38.1828 51.0314L38.2604 50.8015L38.4903 50.7239C38.5406 50.7065 38.5944 50.6981 38.6489 50.6981ZM31.9917 52.7867L32.2091 52.8943C32.3789 52.9789 32.4844 53.1473 32.4844 53.3345C32.4844 53.6064 32.2636 53.8272 31.9917 53.8272C31.7199 53.8272 31.4991 53.6064 31.4991 53.3345C31.4991 53.1473 31.6046 52.9782 31.7744 52.8943L31.9917 52.7867ZM31.4327 43.1849V52.2067C31.017 52.4129 30.7305 52.8405 30.7305 53.3359C30.7305 54.0326 31.2951 54.5972 31.9917 54.5972C32.6884 54.5972 33.253 54.0326 33.253 53.3359C33.253 52.8405 32.9665 52.4129 32.5508 52.2067V45.8843L37.4533 50.7868C37.3052 51.2264 37.4051 51.7316 37.7552 52.0817C38.0011 52.3276 38.324 52.4513 38.6468 52.4513C38.9696 52.4513 39.2925 52.3283 39.5384 52.0817C40.0311 51.589 40.0311 50.7903 39.5384 50.2984C39.2925 50.0524 38.971 49.9301 38.6489 49.9301C38.5119 49.9301 38.375 49.9525 38.2443 49.9965L31.4327 43.1849Z" fill="white"/>
<path d="M24.4438 32.7251C24.7157 32.7251 24.9365 32.9459 24.9365 33.2177C24.9365 33.405 24.831 33.5741 24.6612 33.6579L24.4438 33.7655L24.2265 33.6579C24.0567 33.5734 23.9512 33.405 23.9512 33.2177C23.9512 32.9459 24.1727 32.7251 24.4438 32.7251ZM20.3029 50.6981C20.3575 50.6981 20.4113 50.7072 20.463 50.7239L20.6929 50.8015L20.7704 51.0314C20.8305 51.211 20.7858 51.4045 20.6537 51.5373C20.5608 51.6302 20.4371 51.6812 20.3057 51.6812C20.1744 51.6812 20.0507 51.6302 19.9578 51.5373C19.8648 51.4444 19.8138 51.3207 19.8138 51.1893C19.8138 51.0579 19.8648 50.9343 19.9578 50.8413C20.0486 50.7484 20.1716 50.6981 20.3029 50.6981ZM24.4438 31.9564C23.7472 31.9564 23.1826 32.521 23.1826 33.2177C23.1826 33.7131 23.4691 34.1408 23.8848 34.3469V46.8185L20.7075 49.9958C20.5762 49.9518 20.4392 49.9294 20.303 49.9294C19.9808 49.9294 19.6587 50.0517 19.4134 50.2977C18.9208 50.7903 18.9208 51.589 19.4134 52.0809C19.6594 52.3269 19.9822 52.4506 20.305 52.4506C20.6279 52.4506 20.9507 52.3276 21.1967 52.0809C21.5468 51.7309 21.6467 51.2256 21.4985 50.7861L25.0036 47.2811V34.3462C25.4193 34.1401 25.7058 33.7124 25.7058 33.217C25.7051 32.521 25.1405 31.9564 24.4438 31.9564Z" fill="white"/>
<path d="M7.72692 28.5821C7.85829 28.5821 7.98197 28.6331 8.07491 28.726C8.20767 28.8588 8.25239 29.0523 8.1916 29.2319L8.11404 29.4618L7.88414 29.5394C7.83243 29.5568 7.77933 29.5652 7.72412 29.5652C7.59276 29.5652 7.46977 29.5142 7.37753 29.422C7.18537 29.2298 7.18537 28.9175 7.37753 28.7253C7.47187 28.6338 7.59555 28.5821 7.72692 28.5821ZM19.7814 40.6358C19.9127 40.6358 20.0357 40.6868 20.128 40.7791C20.3201 40.9712 20.3201 41.2836 20.128 41.4757C20.035 41.5687 19.9113 41.6197 19.78 41.6197C19.6486 41.6197 19.5249 41.5687 19.432 41.4757C19.2992 41.343 19.2545 41.1494 19.3153 40.9698L19.3928 40.7399L19.6227 40.6624C19.6731 40.6442 19.7269 40.6358 19.7814 40.6358ZM7.72692 27.8134C7.40409 27.8134 7.08126 27.9364 6.83529 28.1831C6.34266 28.6757 6.34266 29.4744 6.83529 29.9663C7.08126 30.2123 7.40269 30.3346 7.72482 30.3346C7.86178 30.3346 7.99874 30.3122 8.12941 30.2682L18.5851 40.7238C18.4369 41.1634 18.5369 41.6686 18.8869 42.0187C19.1329 42.2646 19.4557 42.3883 19.7786 42.3883C20.1014 42.3883 20.4242 42.2653 20.6702 42.0187C21.1628 41.526 21.1628 40.7273 20.6702 40.2354C20.4242 39.9894 20.1028 39.8672 19.7807 39.8672C19.6437 39.8672 19.5068 39.8895 19.3761 39.9335L8.92042 29.4779C9.06856 29.0384 8.96863 28.5331 8.61855 28.1831C8.37258 27.9371 8.04975 27.8134 7.72692 27.8134Z" fill="white"/>
<path d="M16.9009 31.4638C17.0882 31.4638 17.2573 31.5693 17.3412 31.7391L17.4488 31.9564L17.3412 32.1737C17.2566 32.3435 17.0882 32.449 16.9009 32.449C16.6291 32.449 16.4083 32.2282 16.4083 31.9564C16.4083 31.6846 16.6291 31.4638 16.9009 31.4638ZM20.6708 35.1777L20.8881 35.2853C21.0579 35.3699 21.1634 35.5383 21.1634 35.7256C21.1634 35.9974 20.9426 36.2182 20.6708 36.2182C20.399 36.2182 20.1781 35.9974 20.1781 35.7256C20.1781 35.5383 20.2837 35.3692 20.4535 35.2853L20.6708 35.1777ZM16.9009 30.6951C16.2043 30.6951 15.6396 31.2597 15.6396 31.9564C15.6396 32.6531 16.2043 33.2177 16.9009 33.2177C17.3964 33.2177 17.824 32.9312 18.0301 32.5154H20.1118V34.597C19.696 34.8032 19.4095 35.2308 19.4095 35.7263C19.4095 36.4229 19.9741 36.9875 20.6708 36.9875C21.3675 36.9875 21.9321 36.4229 21.9321 35.7263C21.9321 35.2308 21.6456 34.8032 21.2298 34.597V31.3974H18.0301C17.8233 30.9816 17.3964 30.6951 16.9009 30.6951Z" fill="white"/>
<path d="M11.5004 38.6444C11.6317 38.6444 11.7554 38.6954 11.8483 38.7883C11.9811 38.9211 12.0258 39.1147 11.965 39.2942L11.8875 39.5241L11.6576 39.6017C11.6059 39.6192 11.5528 39.6275 11.4976 39.6275C11.3662 39.6275 11.2432 39.5765 11.151 39.4843C11.058 39.3914 11.007 39.2677 11.007 39.1363C11.007 39.0049 11.058 38.8813 11.151 38.7883C11.2439 38.6954 11.369 38.6444 11.5004 38.6444ZM16.5301 49.4403C16.5846 49.4403 16.6384 49.4494 16.6901 49.4662L16.92 49.5438L16.9976 49.7737C17.0577 49.9532 17.0129 50.1468 16.8809 50.2796C16.7879 50.3725 16.6643 50.4235 16.5329 50.4235C16.4015 50.4235 16.2778 50.3725 16.1849 50.2796C16.092 50.1866 16.041 50.0629 16.041 49.9316C16.041 49.8002 16.092 49.6765 16.1849 49.5836C16.2757 49.4906 16.3987 49.4403 16.5301 49.4403ZM11.5004 37.8757C11.1775 37.8757 10.8547 37.9987 10.6087 38.2454C10.1161 38.738 10.1161 39.5367 10.6087 40.0286C10.8547 40.2746 11.1761 40.3969 11.4983 40.3969C11.6352 40.3969 11.7722 40.3745 11.9028 40.3305L18.6222 47.0499L16.934 48.7381C16.8026 48.6941 16.6657 48.6717 16.5294 48.6717C16.2073 48.6717 15.8851 48.794 15.6399 49.0399C15.1472 49.5326 15.1472 50.3313 15.6399 50.8232C15.8858 51.0692 16.2087 51.1928 16.5315 51.1928C16.8543 51.1928 17.1772 51.0699 17.4231 50.8232C17.7732 50.4731 17.8731 49.9679 17.725 49.5284L20.2035 47.0499L12.6939 39.5402C12.842 39.1007 12.7421 38.5955 12.392 38.2454C12.146 37.9994 11.8232 37.8757 11.5004 37.8757Z" fill="white"/>
<path d="M6.46911 39.9021C6.60048 39.9021 6.72416 39.9531 6.8171 40.046C6.94986 40.1788 6.99458 40.3723 6.93379 40.5519L6.85623 40.7818L6.62633 40.8594C6.57462 40.8768 6.52152 40.8852 6.46631 40.8852C6.33494 40.8852 6.21196 40.8342 6.11972 40.742C5.92756 40.5498 5.92756 40.2375 6.11972 40.0453C6.21406 39.9538 6.33774 39.9021 6.46911 39.9021ZM12.2346 45.6669C12.366 45.6669 12.489 45.7179 12.5812 45.8102C12.7734 46.0023 12.7734 46.3147 12.5812 46.5068C12.4883 46.5998 12.3646 46.6508 12.2332 46.6508C12.1019 46.6508 11.9782 46.5998 11.8853 46.5068C11.7525 46.3741 11.7078 46.1805 11.7686 46.0009L11.8461 45.771L12.076 45.6935C12.1263 45.6753 12.1801 45.6669 12.2346 45.6669ZM6.46911 39.1334C6.14628 39.1334 5.82345 39.2564 5.57748 39.5031C5.08485 39.9957 5.08485 40.7944 5.57748 41.2863C5.82345 41.5323 6.14488 41.6546 6.46701 41.6546C6.60397 41.6546 6.74093 41.6322 6.8716 41.5882L11.0384 45.7549C10.8902 46.1945 10.9901 46.6997 11.3402 47.0498C11.5862 47.2957 11.909 47.4194 12.2318 47.4194C12.5547 47.4194 12.8775 47.2964 13.1235 47.0498C13.6161 46.5571 13.6161 45.7584 13.1235 45.2665C12.8775 45.0205 12.5561 44.8983 12.2339 44.8983C12.097 44.8983 11.96 44.9206 11.8294 44.9646L7.6626 40.7979C7.81074 40.3584 7.71082 39.8532 7.36074 39.5031C7.11477 39.2571 6.79194 39.1334 6.46911 39.1334Z" fill="white"/>
</svg>
