<svg width="57" height="56" viewBox="0 0 57 56" fill="none" xmlns="http://www.w3.org/2000/svg">
<rect x="0.900391" width="55.9998" height="56" rx="27.9999" fill="white"/>
<path d="M7.21423 14.5018C7.3456 14.5018 7.46928 14.5528 7.56221 14.6457C7.69498 14.7785 7.7397 14.9721 7.67891 15.1517L7.60134 15.3815L7.37145 15.4591C7.31974 15.4766 7.26663 15.485 7.21143 15.485C7.08006 15.485 6.95708 15.434 6.86484 15.3417C6.67268 15.1496 6.67268 14.8372 6.86484 14.645C6.95918 14.5535 7.08286 14.5018 7.21423 14.5018ZM32.678 37.6932L32.8953 37.8008C33.0651 37.8854 33.1707 38.0538 33.1707 38.2417C33.1707 38.5136 32.9498 38.7344 32.678 38.7344C32.4062 38.7344 32.1854 38.5136 32.1854 38.2417C32.1854 38.0545 32.2909 37.8854 32.4607 37.8008L32.678 37.6932ZM7.21423 13.7332C6.8914 13.7332 6.56857 13.8561 6.3226 14.1028C5.82997 14.5954 5.82997 15.3941 6.3226 15.8861C6.56856 16.132 6.89 16.2543 7.21213 16.2543C7.34909 16.2543 7.48605 16.2319 7.61672 16.1879L15.7685 24.3398H27.7175L32.1183 28.7406V37.1125C31.7025 37.3187 31.4161 37.7463 31.4161 38.2417C31.4161 38.9384 31.9807 39.503 32.6773 39.503C33.374 39.503 33.9386 38.9384 33.9386 38.2417C33.9386 37.7463 33.6521 37.3187 33.2363 37.1125V28.2773L28.1808 23.2217H16.2318L8.40772 15.3976C8.55586 14.9581 8.45594 14.4529 8.10586 14.1028C7.85989 13.8568 7.53706 13.7332 7.21423 13.7332Z" fill="#27337B"/>
<path d="M18.5162 3.79599C18.788 3.79599 19.0088 4.0168 19.0088 4.28862C19.0088 4.47589 18.9033 4.64499 18.7335 4.72884L18.5162 4.83645L18.2988 4.72884C18.129 4.64429 18.0235 4.47589 18.0235 4.28862C18.0235 4.0168 18.245 3.79599 18.5162 3.79599ZM36.2649 41.6063L36.4822 41.7139C36.652 41.7985 36.7575 41.9669 36.7575 42.1542C36.7575 42.426 36.5367 42.6468 36.2649 42.6468C35.993 42.6468 35.7722 42.426 35.7722 42.1542C35.7722 41.9669 35.8777 41.7978 36.0475 41.7139L36.2649 41.6063ZM18.5162 3.02734C17.8195 3.02734 17.2549 3.59195 17.2549 4.28862C17.2549 4.78404 17.5414 5.21169 17.9571 5.41783V15.8434L22.2036 19.9382H29.6049L35.7059 26.0392V41.0263C35.2901 41.2325 35.0036 41.6601 35.0036 42.1556C35.0036 42.8522 35.5682 43.4168 36.2649 43.4168C36.9615 43.4168 37.5261 42.8522 37.5261 42.1556C37.5261 41.6601 37.2396 41.2325 36.8239 41.0263V25.5759L30.0675 18.8195H22.655L19.0752 15.3676V5.41713C19.4909 5.21099 19.7774 4.78335 19.7774 4.28792C19.7774 3.59195 19.2128 3.02734 18.5162 3.02734Z" fill="#27337B"/>
<path d="M50.4661 14.7464C50.5975 14.7464 50.7211 14.7974 50.8141 14.8904C50.907 14.9833 50.958 15.107 50.958 15.2384C50.958 15.3697 50.907 15.4934 50.8141 15.5863C50.7218 15.6786 50.5989 15.7296 50.4675 15.7296C50.413 15.7296 50.3592 15.7205 50.3075 15.7037L50.0776 15.6262L50 15.3963C49.9399 15.2167 49.9846 15.0231 50.1167 14.8904C50.2111 14.7981 50.3347 14.7464 50.4661 14.7464ZM39.8511 45.24L40.0684 45.3476C40.2382 45.4321 40.3437 45.6005 40.3437 45.7878C40.3437 46.0596 40.1229 46.2804 39.8511 46.2804C39.5793 46.2804 39.3585 46.0596 39.3585 45.7878C39.3585 45.6005 39.464 45.4314 39.6338 45.3469L39.8511 45.24ZM50.4661 13.9778C50.1433 13.9778 49.8204 14.1008 49.5745 14.3474C49.2244 14.6975 49.1245 15.2027 49.2726 15.6422L43.3219 21.593V29.1396L39.2921 33.1694V44.66C38.8763 44.8661 38.5898 45.2938 38.5898 45.7892C38.5898 46.4859 39.1545 47.0505 39.8511 47.0505C40.5478 47.0505 41.1124 46.4859 41.1124 45.7892C41.1124 45.2938 40.8259 44.8661 40.4101 44.66V33.632L44.4399 29.6022V22.0555L50.0629 16.4326C50.1943 16.4766 50.3312 16.4989 50.4675 16.4989C50.7896 16.4989 51.1118 16.3767 51.357 16.1307C51.8497 15.6381 51.8497 14.8394 51.357 14.3474C51.1118 14.1015 50.7889 13.9778 50.4661 13.9778Z" fill="#27337B"/>
<path d="M10.7425 9.27279C10.8739 9.27279 10.9976 9.3238 11.0905 9.41674C11.2233 9.54951 11.268 9.74307 11.2072 9.92265L11.1297 10.1525L10.9005 10.2301C10.8488 10.2476 10.7957 10.256 10.7411 10.256C10.6098 10.256 10.4868 10.205 10.3946 10.1127C10.3016 10.0198 10.2506 9.8961 10.2506 9.76473C10.2506 9.63336 10.3016 9.50968 10.3946 9.41674C10.4875 9.32381 10.6112 9.27279 10.7425 9.27279ZM17.7659 19.2533C17.8972 19.2533 18.0202 19.3043 18.1124 19.3965C18.2054 19.4895 18.2564 19.6132 18.2564 19.7445C18.2564 19.8759 18.2054 19.9996 18.1124 20.0925C18.0195 20.1855 17.8958 20.2365 17.7645 20.2365C17.6331 20.2365 17.5094 20.1855 17.4165 20.0925C17.2837 19.9598 17.239 19.7662 17.2998 19.5866L17.3773 19.3567L17.6072 19.2792C17.6576 19.2617 17.7114 19.2533 17.7659 19.2533ZM10.7425 8.50415C10.4197 8.50415 10.0969 8.62713 9.85092 8.8738C9.35829 9.36643 9.35829 10.1651 9.85092 10.6571C10.0969 10.903 10.4183 11.0253 10.7405 11.0253C10.8774 11.0253 11.0144 11.0029 11.145 10.9589L13.0646 12.8784V15.8363L16.5696 19.3413C16.4214 19.7809 16.5214 20.2861 16.8714 20.6362C17.1174 20.8821 17.4402 21.0058 17.7631 21.0058C18.0859 21.0058 18.4087 20.8828 18.6547 20.6362C19.1473 20.1435 19.1473 19.3448 18.6547 18.8529C18.4087 18.6069 18.0873 18.4847 17.7652 18.4847C17.6282 18.4847 17.4913 18.507 17.3606 18.551L14.1833 15.3737V12.4159L11.936 10.1686C12.0842 9.72909 11.9843 9.22388 11.6342 8.8738C11.3882 8.62713 11.0654 8.50415 10.7425 8.50415Z" fill="#27337B"/>
<path d="M3.56206 25.1783C3.83388 25.1783 4.05469 25.3991 4.05469 25.6709C4.05469 25.8582 3.94917 26.0273 3.77937 26.1112L3.56206 26.2188L3.34474 26.1112C3.17494 26.0273 3.06942 25.8582 3.06942 25.6709C3.06942 25.3991 3.29093 25.1783 3.56206 25.1783ZM7.70366 34.3468C7.83502 34.3468 7.95801 34.3979 8.05024 34.4901C8.14318 34.583 8.19419 34.7067 8.19419 34.8381C8.19419 34.9695 8.14318 35.0931 8.05024 35.1861C7.95731 35.279 7.83363 35.33 7.70226 35.33C7.57089 35.33 7.44721 35.279 7.35427 35.1861C7.22151 35.0533 7.17679 34.8597 7.23758 34.6802L7.31514 34.4503L7.54504 34.3727C7.59535 34.3552 7.64915 34.3468 7.70366 34.3468ZM3.56206 24.4097C2.86538 24.4097 2.30078 24.9743 2.30078 25.6709C2.30078 26.1664 2.58728 26.594 3.00304 26.8002V30.9306L6.50806 34.4356C6.35992 34.8751 6.45985 35.3803 6.80993 35.7304C7.05589 35.9764 7.37872 36.1001 7.70156 36.1001C8.02439 36.1001 8.34722 35.9771 8.59319 35.7304C9.08582 35.2378 9.08582 34.4391 8.59319 33.9472C8.34722 33.7012 8.02579 33.5789 7.70365 33.5789C7.5667 33.5789 7.42974 33.6013 7.29907 33.6453L4.12177 30.468V26.8009C4.53754 26.5947 4.82403 26.1671 4.82403 25.6716C4.82333 24.9743 4.25873 24.4097 3.56206 24.4097Z" fill="#27337B"/>
<path d="M42.5532 6.31161C42.825 6.31161 43.0458 6.53242 43.0458 6.80424C43.0458 6.99151 42.9403 7.16062 42.7705 7.24447L42.5532 7.35208L42.3359 7.24447C42.1661 7.16061 42.0606 6.99151 42.0606 6.80424C42.0606 6.53242 42.2821 6.31161 42.5532 6.31161ZM40.0376 26.3732L40.255 26.4809C40.4248 26.5647 40.5303 26.7338 40.5303 26.9211C40.5303 27.1929 40.3095 27.4137 40.0376 27.4137C39.7658 27.4137 39.545 27.1929 39.545 26.9211C39.545 26.7338 39.6505 26.5647 39.8203 26.4809L40.0376 26.3732ZM42.5532 5.54297C41.8565 5.54297 41.2919 6.10757 41.2919 6.80424C41.2919 7.29967 41.5784 7.72732 41.9942 7.93345V12.8584L39.4786 15.3739V25.7933C39.0629 25.9994 38.7764 26.427 38.7764 26.9225C38.7764 27.6191 39.341 28.1837 40.0376 28.1837C40.7343 28.1837 41.2989 27.6191 41.2989 26.9225C41.2989 26.427 41.0124 25.9994 40.5967 25.7933V15.8365L43.1122 13.321V7.93275C43.528 7.72662 43.8145 7.29897 43.8145 6.80355C43.8145 6.10757 43.2499 5.54297 42.5532 5.54297Z" fill="#27337B"/>
<path d="M47.5845 10.0848C47.8563 10.0848 48.0771 10.3056 48.0771 10.5774C48.0771 10.7647 47.9716 10.9338 47.8018 11.0177L47.5845 11.1253L47.3672 11.0177C47.1974 10.9331 47.0919 10.7647 47.0919 10.5774C47.0919 10.3056 47.3134 10.0848 47.5845 10.0848ZM44.7014 15.48C44.7559 15.48 44.8097 15.4891 44.8614 15.5058L45.0913 15.5834L45.1689 15.8133C45.229 15.9929 45.1842 16.1864 45.0522 16.3192C44.9592 16.4121 44.8356 16.4632 44.7042 16.4632C44.5728 16.4632 44.4491 16.4121 44.3562 16.3192C44.164 16.127 44.164 15.8147 44.3562 15.6225C44.4471 15.5303 44.57 15.48 44.7014 15.48ZM47.5845 9.31616C46.8878 9.31616 46.3232 9.88077 46.3232 10.5774C46.3232 11.0729 46.6097 11.5005 47.0255 11.7066V12.8582L45.106 14.7777C44.9746 14.7337 44.8377 14.7113 44.7014 14.7113C44.3793 14.7113 44.0571 14.8336 43.8119 15.0796C43.3192 15.5722 43.3192 16.3709 43.8119 16.8629C44.0578 17.1088 44.3807 17.2325 44.7035 17.2325C45.0263 17.2325 45.3491 17.1095 45.5951 16.8629C45.9452 16.5128 46.0451 16.0076 45.897 15.568L48.1442 13.3208V11.7059C48.56 11.4998 48.8465 11.0722 48.8465 10.5767C48.8458 9.88077 48.2812 9.31616 47.5845 9.31616Z" fill="#27337B"/>
<path d="M37.5221 3.79599C37.794 3.79599 38.0148 4.0168 38.0148 4.28862C38.0148 4.47589 37.9092 4.64499 37.7394 4.72884L37.5221 4.83645L37.3048 4.72884C37.135 4.64429 37.0295 4.47589 37.0295 4.28862C37.0295 4.0168 37.251 3.79599 37.5221 3.79599ZM24.9478 13.8548C25.1351 13.8548 25.3042 13.9603 25.388 14.1301L25.4956 14.3474L25.388 14.5647C25.3035 14.7345 25.1351 14.84 24.9478 14.84C24.676 14.84 24.4552 14.6192 24.4552 14.3474C24.4552 14.0756 24.676 13.8548 24.9478 13.8548ZM37.5221 3.02734C36.8255 3.02734 36.2609 3.59195 36.2609 4.28862C36.2609 4.78404 36.5473 5.21169 36.9631 5.41783V7.82718L31.0019 13.7884H26.077C25.8709 13.3726 25.4432 13.0861 24.9478 13.0861C24.2511 13.0861 23.6865 13.6507 23.6865 14.3474C23.6865 15.0441 24.2511 15.6087 24.9478 15.6087C25.4432 15.6087 25.8709 15.3222 26.077 14.9064H31.4652L38.0818 8.28976V5.41713C38.4976 5.21099 38.7841 4.78335 38.7841 4.28792C38.7834 3.59195 38.2188 3.02734 37.5221 3.02734Z" fill="#27337B"/>
<path d="M29.61 2.16855C29.7414 2.16855 29.865 2.21956 29.958 2.31249C30.0907 2.44526 30.1355 2.63882 30.0747 2.8184L29.9971 3.0483L29.7672 3.12586C29.7155 3.14333 29.6624 3.15171 29.6072 3.15171C29.4758 3.15171 29.3528 3.1007 29.2606 3.00847C29.1677 2.91553 29.1167 2.79185 29.1167 2.66048C29.1167 2.52911 29.1677 2.40543 29.2606 2.31249C29.3535 2.21956 29.4786 2.16855 29.61 2.16855ZM24.9485 10.0814C25.1358 10.0814 25.3049 10.1869 25.3887 10.3567L25.4963 10.574L25.3887 10.7913C25.3042 10.9611 25.1358 11.0667 24.9485 11.0667C24.6767 11.0667 24.4559 10.8458 24.4559 10.574C24.4559 10.3022 24.6767 10.0814 24.9485 10.0814ZM29.61 1.3999C29.2872 1.3999 28.9643 1.52289 28.7184 1.76955C28.2257 2.26218 28.2257 3.06087 28.7184 3.55281C28.9643 3.79877 29.2858 3.92106 29.6079 3.92106C29.7448 3.92106 29.8818 3.8987 30.0125 3.85468L32.9585 6.80068L29.7441 10.015H26.077C25.8709 9.59925 25.4432 9.31275 24.9478 9.31275C24.2511 9.31275 23.6865 9.87736 23.6865 10.574C23.6865 11.2707 24.2511 11.8353 24.9478 11.8353C25.4432 11.8353 25.8709 11.5488 26.077 11.133H30.2074L34.5398 6.80068L30.8035 3.06437C30.9516 2.62485 30.8517 2.11964 30.5016 1.76955C30.2556 1.52358 29.9328 1.3999 29.61 1.3999Z" fill="#27337B"/>
<path d="M23.3207 2.16855C23.452 2.16855 23.5757 2.21956 23.6687 2.31249C23.8014 2.44526 23.8462 2.63882 23.7854 2.8184L23.7078 3.0483L23.4779 3.12586C23.4262 3.14333 23.3731 3.15171 23.3179 3.15171C23.1865 3.15171 23.0635 3.1007 22.9713 3.00847C22.7791 2.81631 22.7791 2.50396 22.9713 2.31179C23.0656 2.22026 23.1893 2.16855 23.3207 2.16855ZM26.5706 5.41782C26.702 5.41782 26.825 5.46883 26.9172 5.56107C27.1094 5.75323 27.1094 6.06558 26.9172 6.25774C26.8243 6.35067 26.7006 6.40168 26.5692 6.40168C26.4379 6.40168 26.3142 6.35067 26.2213 6.25774C26.0885 6.12497 26.0438 5.93141 26.1046 5.75183L26.1821 5.52193L26.412 5.44437C26.4623 5.4262 26.5161 5.41782 26.5706 5.41782ZM23.3207 1.3999C22.9978 1.3999 22.675 1.52289 22.429 1.76955C21.9364 2.26218 21.9364 3.06087 22.429 3.55281C22.675 3.79877 22.9964 3.92106 23.3186 3.92106C23.4555 3.92106 23.5925 3.8987 23.7232 3.85467L25.3744 5.50586C25.2262 5.94539 25.3261 6.4506 25.6762 6.80068C25.9222 7.04665 26.245 7.17033 26.5678 7.17033C26.8907 7.17033 27.2135 7.04734 27.4595 6.80068C27.9521 6.30805 27.9521 5.50936 27.4595 5.01742C27.2135 4.77146 26.8921 4.64917 26.5699 4.64917C26.433 4.64917 26.296 4.67153 26.1654 4.71556L24.5142 3.06437C24.6623 2.62484 24.5624 2.11963 24.2123 1.76955C23.9663 1.52358 23.6435 1.3999 23.3207 1.3999Z" fill="#27337B"/>
<path d="M36.6312 13.4886C36.7626 13.4886 36.8862 13.5396 36.9792 13.6326C37.1713 13.8247 37.1713 14.1371 36.9792 14.3292C36.8869 14.4215 36.764 14.4725 36.6326 14.4725C36.5781 14.4725 36.5243 14.4634 36.4726 14.4466L36.2427 14.3691L36.1651 14.1392C36.105 13.9596 36.1497 13.766 36.2818 13.6333C36.3761 13.5403 36.4998 13.4886 36.6312 13.4886ZM36.6333 19.2535C36.7647 19.2535 36.8876 19.3045 36.9799 19.3967C37.172 19.5889 37.172 19.9012 36.9799 20.0934C36.8869 20.1863 36.7633 20.2373 36.6319 20.2373C36.5005 20.2373 36.3768 20.1863 36.2839 20.0934C36.1511 19.9606 36.1064 19.767 36.1672 19.5875L36.2448 19.3576L36.4747 19.28C36.525 19.2618 36.5788 19.2535 36.6333 19.2535ZM36.6312 12.72C36.3084 12.72 35.9855 12.843 35.7396 13.0896C35.3895 13.4397 35.2896 13.9449 35.4377 14.3844L34.4482 15.3739V18.3527L35.4377 19.3422C35.2896 19.7817 35.3895 20.2869 35.7396 20.637C35.9855 20.883 36.3084 21.0067 36.6312 21.0067C36.954 21.0067 37.2769 20.8837 37.5228 20.637C38.0155 20.1444 38.0155 19.3457 37.5228 18.8538C37.2769 18.6078 36.9547 18.4855 36.6333 18.4855C36.4963 18.4855 36.3594 18.5079 36.2287 18.5519L35.567 17.8902V15.8379L36.2287 15.1761C36.3601 15.2202 36.497 15.2425 36.6333 15.2425C36.9554 15.2425 37.2776 15.1202 37.5228 14.8743C38.0155 14.3816 38.0155 13.583 37.5228 13.091C37.2769 12.8437 36.954 12.72 36.6312 12.72Z" fill="#27337B"/>
<path d="M5.7113 19.7774C5.84266 19.7774 5.96635 19.8284 6.05928 19.9214C6.19205 20.0541 6.23677 20.2477 6.17598 20.4273L6.09841 20.6572L5.86852 20.7347C5.81681 20.7522 5.7637 20.7606 5.7085 20.7606C5.57713 20.7606 5.45415 20.7096 5.36191 20.6174C5.26897 20.5244 5.21796 20.4007 5.21796 20.2694C5.21796 20.138 5.26897 20.0143 5.36191 19.9214C5.45485 19.8284 5.57993 19.7774 5.7113 19.7774ZM24.9407 27.6903C25.2125 27.6903 25.4333 27.9111 25.4333 28.1829C25.4333 28.4547 25.2125 28.6755 24.9407 28.6755C24.7534 28.6755 24.5843 28.57 24.5005 28.4002L24.3929 28.1829L24.5005 27.9656C24.5843 27.7958 24.7534 27.6903 24.9407 27.6903ZM5.7113 19.0088C5.38847 19.0088 5.06564 19.1318 4.81967 19.3784C4.32704 19.8711 4.32704 20.6698 4.81967 21.1617C5.06564 21.4077 5.38707 21.5299 5.7092 21.5299C5.84616 21.5299 5.98312 21.5076 6.11379 21.4636L13.3922 28.7419H23.8115C24.0176 29.1577 24.4453 29.4442 24.9407 29.4442C25.6374 29.4442 26.202 28.8796 26.202 28.1829C26.202 27.4862 25.6374 26.9216 24.9407 26.9216C24.4453 26.9216 24.0176 27.2081 23.8115 27.6239H13.8554L6.90479 20.6733C7.05293 20.2337 6.95301 19.7285 6.60292 19.3784C6.35696 19.1325 6.03413 19.0088 5.7113 19.0088Z" fill="#27337B"/>
<path d="M52.9813 19.7774C53.1126 19.7774 53.2363 19.8284 53.3293 19.9214C53.5214 20.1135 53.5214 20.4259 53.3293 20.6181C53.237 20.7103 53.114 20.7613 52.9827 20.7613C52.9282 20.7613 52.8744 20.7522 52.8227 20.7355L52.5928 20.6579L52.5152 20.428C52.4551 20.2484 52.4998 20.0549 52.6319 19.9221C52.7262 19.8291 52.8499 19.7774 52.9813 19.7774ZM47.8866 27.6309L48.1039 27.7385C48.2737 27.823 48.3792 27.9915 48.3792 28.1794C48.3792 28.4512 48.1584 28.6721 47.8865 28.6721C47.6147 28.6721 47.3939 28.4512 47.3939 28.1794C47.3939 27.9922 47.4994 27.8231 47.6692 27.7385L47.8866 27.6309ZM52.9813 19.0088C52.6584 19.0088 52.3356 19.1318 52.0896 19.3784C51.7396 19.7285 51.6396 20.2337 51.7878 20.6733L47.3282 25.1328V27.0502C46.9125 27.2563 46.626 27.684 46.626 28.1794C46.626 28.8761 47.1906 29.4407 47.8873 29.4407C48.5839 29.4407 49.1485 28.8761 49.1485 28.1794C49.1485 27.684 48.862 27.2563 48.4463 27.0502V25.5961L52.5788 21.4636C52.7102 21.5076 52.8471 21.5299 52.9834 21.5299C53.3055 21.5299 53.6276 21.4077 53.8729 21.1617C54.3655 20.6691 54.3655 19.8704 53.8729 19.3784C53.6269 19.1325 53.3041 19.0088 52.9813 19.0088Z" fill="#27337B"/>
<path d="M28.7174 31.4671C28.9892 31.4671 29.21 31.6879 29.21 31.9598C29.21 32.147 29.1045 32.3161 28.9347 32.4L28.7174 32.5076L28.5 32.4C28.3302 32.3154 28.2247 32.147 28.2247 31.9598C28.2247 31.6879 28.4462 31.4671 28.7174 31.4671ZM28.7139 52.8459C28.9857 52.8459 29.2065 53.0667 29.2065 53.3386C29.2065 53.6104 28.9857 53.8312 28.7139 53.8312C28.5266 53.8312 28.3575 53.7257 28.2736 53.5559L28.166 53.3386L28.2736 53.1213C28.3575 52.9515 28.5266 52.8459 28.7139 52.8459ZM28.7174 30.6985C28.0207 30.6985 27.4561 31.2631 27.4561 31.9598C27.4561 32.4552 27.7426 32.8828 28.1584 33.089V48.0761L22.3369 53.8976H27.5854C27.7915 54.3134 28.2191 54.5998 28.7146 54.5998C29.4112 54.5998 29.9758 54.0352 29.9758 53.3386C29.9758 52.6419 29.4112 52.0773 28.7146 52.0773C28.2191 52.0773 27.7915 52.3638 27.5854 52.7796H25.0363L29.2771 48.5387V33.0883C29.6928 32.8821 29.9793 32.4545 29.9793 31.9591C29.9786 31.2631 29.414 30.6985 28.7174 30.6985Z" fill="#27337B"/>
<path d="M54.2396 24.8087C54.3709 24.8087 54.4946 24.8597 54.5875 24.9526C54.7797 25.1448 54.7797 25.4571 54.5875 25.6493C54.4953 25.7415 54.3723 25.7926 54.241 25.7926C54.1864 25.7926 54.1326 25.7835 54.0809 25.7667L53.851 25.6891L53.7735 25.4592C53.7134 25.2797 53.7581 25.0861 53.8902 24.9533C53.9845 24.8604 54.1082 24.8087 54.2396 24.8087ZM43.858 47.7555L44.0753 47.8631C44.2451 47.9477 44.3506 48.1161 44.3506 48.3041C44.3506 48.5759 44.1298 48.7967 43.858 48.7967C43.5861 48.7967 43.3653 48.5759 43.3653 48.3041C43.3653 48.1168 43.4708 47.9477 43.6406 47.8631L43.858 47.7555ZM54.2396 24.04C53.9167 24.04 53.5939 24.163 53.3479 24.4097C52.9978 24.7598 52.8979 25.265 53.0461 25.7045L52.0566 26.694V31.3974H47.3532L43.2989 35.4516V47.1755C42.8832 47.3817 42.5967 47.8093 42.5967 48.3048C42.5967 49.0014 43.1613 49.566 43.858 49.566C44.5546 49.566 45.1192 49.0014 45.1192 48.3048C45.1192 47.8093 44.8327 47.3817 44.417 47.1755V35.9149L47.8165 32.5154H53.1753V27.1565L53.8371 26.4948C53.9684 26.5388 54.1054 26.5612 54.2417 26.5612C54.5638 26.5612 54.8859 26.4389 55.1312 26.1929C55.6238 25.7003 55.6238 24.9016 55.1312 24.4097C54.8852 24.1637 54.5624 24.04 54.2396 24.04Z" fill="#27337B"/>
<path d="M52.6119 35.2371C52.8837 35.2371 53.1045 35.458 53.1045 35.7298C53.1045 36.0016 52.8837 36.2224 52.6119 36.2224C52.4246 36.2224 52.2555 36.1169 52.1716 35.9471L52.064 35.7298L52.1716 35.5125C52.2555 35.3427 52.4246 35.2371 52.6119 35.2371ZM49.0705 43.2912C49.2019 43.2912 49.3249 43.3422 49.4171 43.4344C49.6093 43.6266 49.6093 43.9389 49.4171 44.1311C49.3242 44.224 49.2005 44.275 49.0691 44.275C48.9377 44.275 48.8141 44.224 48.7211 44.1311C48.5884 43.9983 48.5436 43.8047 48.6044 43.6252L48.682 43.3953L48.9119 43.3177C48.9622 43.2995 49.016 43.2912 49.0705 43.2912ZM52.6119 34.4685C52.1164 34.4685 51.6888 34.755 51.4827 35.1708H48.61L46.8848 36.896V42.3904L47.8742 43.3799C47.7261 43.8194 47.826 44.3246 48.1761 44.6747C48.4221 44.9207 48.7449 45.0444 49.0677 45.0444C49.3905 45.0444 49.7134 44.9214 49.9593 44.6747C50.452 44.1821 50.452 43.3834 49.9593 42.8915C49.7134 42.6455 49.3912 42.5232 49.0698 42.5232C48.9329 42.5232 48.7959 42.5456 48.6652 42.5896L48.0035 41.9279V37.36L49.0733 36.2902H51.4827C51.6888 36.706 52.1164 36.9925 52.6119 36.9925C53.3085 36.9925 53.8731 36.4279 53.8731 35.7312C53.8731 35.0345 53.3085 34.4685 52.6119 34.4685Z" fill="#27337B"/>
<path d="M39.1489 50.698C39.2803 50.698 39.4033 50.749 39.4955 50.8412C39.5884 50.9342 39.6394 51.0578 39.6394 51.1892C39.6394 51.3206 39.5884 51.4443 39.4955 51.5372C39.4026 51.6301 39.2789 51.6811 39.1475 51.6811C39.0161 51.6811 38.8925 51.6301 38.7995 51.5372C38.6668 51.4044 38.622 51.2109 38.6828 51.0313L38.7604 50.8014L38.9903 50.7238C39.0406 50.7063 39.0944 50.698 39.1489 50.698ZM32.4917 52.7866L32.7091 52.8942C32.8789 52.9787 32.9844 53.1471 32.9844 53.3344C32.9844 53.6062 32.7636 53.827 32.4917 53.827C32.2199 53.827 31.9991 53.6062 31.9991 53.3344C31.9991 53.1471 32.1046 52.978 32.2744 52.8942L32.4917 52.7866ZM31.9327 43.1848V52.2066C31.517 52.4127 31.2305 52.8404 31.2305 53.3358C31.2305 54.0325 31.7951 54.5971 32.4917 54.5971C33.1884 54.5971 33.753 54.0325 33.753 53.3358C33.753 52.8404 33.4665 52.4127 33.0508 52.2066V45.8842L37.9533 50.7867C37.8052 51.2262 37.9051 51.7314 38.2552 52.0815C38.5011 52.3275 38.824 52.4512 39.1468 52.4512C39.4696 52.4512 39.7925 52.3282 40.0384 52.0815C40.5311 51.5889 40.5311 50.7902 40.0384 50.2983C39.7925 50.0523 39.471 49.93 39.1489 49.93C39.0119 49.93 38.875 49.9524 38.7443 49.9964L31.9327 43.1848Z" fill="#27337B"/>
<path d="M24.9438 32.7249C25.2157 32.7249 25.4365 32.9458 25.4365 33.2176C25.4365 33.4048 25.331 33.5739 25.1612 33.6578L24.9438 33.7654L24.7265 33.6578C24.5567 33.5733 24.4512 33.4048 24.4512 33.2176C24.4512 32.9458 24.6727 32.7249 24.9438 32.7249ZM20.8029 50.698C20.8575 50.698 20.9113 50.707 20.963 50.7238L21.1929 50.8014L21.2704 51.0313C21.3305 51.2109 21.2858 51.4044 21.1537 51.5372C21.0608 51.6301 20.9371 51.6811 20.8057 51.6811C20.6744 51.6811 20.5507 51.6301 20.4578 51.5372C20.3648 51.4442 20.3138 51.3206 20.3138 51.1892C20.3138 51.0578 20.3648 50.9341 20.4578 50.8412C20.5486 50.7483 20.6716 50.698 20.8029 50.698ZM24.9438 31.9563C24.2472 31.9563 23.6826 32.5209 23.6826 33.2176C23.6826 33.713 23.9691 34.1406 24.3848 34.3468V46.8184L21.2075 49.9957C21.0762 49.9517 20.9392 49.9293 20.803 49.9293C20.4808 49.9293 20.1587 50.0516 19.9134 50.2976C19.4208 50.7902 19.4208 51.5889 19.9134 52.0808C20.1594 52.3268 20.4822 52.4505 20.805 52.4505C21.1279 52.4505 21.4507 52.3275 21.6967 52.0808C22.0468 51.7307 22.1467 51.2255 21.9985 50.786L25.5036 47.281V34.3461C25.9193 34.14 26.2058 33.7123 26.2058 33.2169C26.2051 32.5209 25.6405 31.9563 24.9438 31.9563Z" fill="#27337B"/>
<path d="M8.22692 28.5819C8.35829 28.5819 8.48197 28.6329 8.57491 28.7258C8.70767 28.8586 8.75239 29.0521 8.6916 29.2317L8.61404 29.4616L8.38414 29.5392C8.33243 29.5567 8.27933 29.565 8.22412 29.565C8.09276 29.565 7.96977 29.514 7.87753 29.4218C7.68537 29.2296 7.68537 28.9173 7.87753 28.7251C7.97187 28.6336 8.09555 28.5819 8.22692 28.5819ZM20.2814 40.6356C20.4127 40.6356 20.5357 40.6866 20.628 40.7789C20.8201 40.971 20.8201 41.2834 20.628 41.4755C20.535 41.5685 20.4113 41.6195 20.28 41.6195C20.1486 41.6195 20.0249 41.5685 19.932 41.4755C19.7992 41.3428 19.7545 41.1492 19.8153 40.9696L19.8928 40.7397L20.1227 40.6622C20.1731 40.644 20.2269 40.6356 20.2814 40.6356ZM8.22692 27.8132C7.90409 27.8132 7.58126 27.9362 7.33529 28.1829C6.84266 28.6755 6.84266 29.4742 7.33529 29.9661C7.58126 30.2121 7.90269 30.3344 8.22482 30.3344C8.36178 30.3344 8.49874 30.312 8.62941 30.268L19.0851 40.7237C18.9369 41.1632 19.0369 41.6684 19.3869 42.0185C19.6329 42.2644 19.9557 42.3881 20.2786 42.3881C20.6014 42.3881 20.9242 42.2651 21.1702 42.0185C21.6628 41.5258 21.6628 40.7272 21.1702 40.2352C20.9242 39.9893 20.6028 39.867 20.2807 39.867C20.1437 39.867 20.0068 39.8893 19.8761 39.9334L9.42042 29.4777C9.56856 29.0382 9.46863 28.533 9.11855 28.1829C8.87258 27.9369 8.54975 27.8132 8.22692 27.8132Z" fill="#27337B"/>
<path d="M17.4009 31.4637C17.5882 31.4637 17.7573 31.5692 17.8412 31.739L17.9488 31.9564L17.8412 32.1737C17.7566 32.3435 17.5882 32.449 17.4009 32.449C17.1291 32.449 16.9083 32.2282 16.9083 31.9564C16.9083 31.6845 17.1291 31.4637 17.4009 31.4637ZM21.1708 35.1777L21.3881 35.2853C21.5579 35.3698 21.6634 35.5382 21.6634 35.7255C21.6634 35.9973 21.4426 36.2181 21.1708 36.2181C20.899 36.2181 20.6781 35.9973 20.6781 35.7255C20.6781 35.5382 20.7837 35.3691 20.9535 35.2853L21.1708 35.1777ZM17.4009 30.6951C16.7043 30.6951 16.1396 31.2597 16.1396 31.9563C16.1396 32.653 16.7043 33.2176 17.4009 33.2176C17.8964 33.2176 18.324 32.9311 18.5301 32.5154H20.6118V34.597C20.196 34.8031 19.9095 35.2308 19.9095 35.7262C19.9095 36.4229 20.4741 36.9875 21.1708 36.9875C21.8675 36.9875 22.4321 36.4229 22.4321 35.7262C22.4321 35.2308 22.1456 34.8031 21.7298 34.597V31.3973H18.5301C18.3233 30.9816 17.8964 30.6951 17.4009 30.6951Z" fill="#27337B"/>
<path d="M12.0004 38.6444C12.1317 38.6444 12.2554 38.6954 12.3483 38.7883C12.4811 38.9211 12.5258 39.1147 12.465 39.2942L12.3875 39.5241L12.1576 39.6017C12.1059 39.6192 12.0528 39.6275 11.9976 39.6275C11.8662 39.6275 11.7432 39.5765 11.651 39.4843C11.558 39.3914 11.507 39.2677 11.507 39.1363C11.507 39.0049 11.558 38.8813 11.651 38.7883C11.7439 38.6954 11.869 38.6444 12.0004 38.6444ZM17.0301 49.4403C17.0846 49.4403 17.1384 49.4494 17.1901 49.4662L17.42 49.5438L17.4976 49.7737C17.5577 49.9532 17.5129 50.1468 17.3809 50.2796C17.2879 50.3725 17.1643 50.4235 17.0329 50.4235C16.9015 50.4235 16.7778 50.3725 16.6849 50.2796C16.592 50.1866 16.541 50.0629 16.541 49.9316C16.541 49.8002 16.592 49.6765 16.6849 49.5836C16.7757 49.4906 16.8987 49.4403 17.0301 49.4403ZM12.0004 37.8757C11.6775 37.8757 11.3547 37.9987 11.1087 38.2454C10.6161 38.738 10.6161 39.5367 11.1087 40.0286C11.3547 40.2746 11.6761 40.3969 11.9983 40.3969C12.1352 40.3969 12.2722 40.3745 12.4028 40.3305L19.1222 47.0499L17.434 48.7381C17.3026 48.6941 17.1657 48.6717 17.0294 48.6717C16.7073 48.6717 16.3851 48.794 16.1399 49.0399C15.6472 49.5326 15.6472 50.3313 16.1399 50.8232C16.3858 51.0692 16.7087 51.1928 17.0315 51.1928C17.3543 51.1928 17.6772 51.0699 17.9231 50.8232C18.2732 50.4731 18.3731 49.9679 18.225 49.5284L20.7035 47.0499L13.1939 39.5402C13.342 39.1007 13.2421 38.5955 12.892 38.2454C12.646 37.9994 12.3232 37.8757 12.0004 37.8757Z" fill="#27337B"/>
<path d="M6.96911 39.9019C7.10048 39.9019 7.22416 39.953 7.3171 40.0459C7.44986 40.1787 7.49458 40.3722 7.43379 40.5518L7.35623 40.7817L7.12633 40.8593C7.07462 40.8767 7.02152 40.8851 6.96631 40.8851C6.83494 40.8851 6.71196 40.8341 6.61972 40.7419C6.42756 40.5497 6.42756 40.2374 6.61972 40.0452C6.71406 39.9537 6.83774 39.9019 6.96911 39.9019ZM12.7346 45.6668C12.866 45.6668 12.989 45.7178 13.0812 45.81C13.2734 46.0022 13.2734 46.3145 13.0812 46.5067C12.9883 46.5996 12.8646 46.6506 12.7332 46.6506C12.6019 46.6506 12.4782 46.5996 12.3853 46.5067C12.2525 46.3739 12.2078 46.1804 12.2686 46.0008L12.3461 45.7709L12.576 45.6933C12.6263 45.6752 12.6801 45.6668 12.7346 45.6668ZM6.96911 39.1333C6.64628 39.1333 6.32345 39.2563 6.07748 39.5029C5.58485 39.9956 5.58485 40.7943 6.07748 41.2862C6.32345 41.5322 6.64488 41.6545 6.96701 41.6545C7.10397 41.6545 7.24093 41.6321 7.3716 41.5881L11.5384 45.7548C11.3902 46.1943 11.4901 46.6996 11.8402 47.0496C12.0862 47.2956 12.409 47.4193 12.7318 47.4193C13.0547 47.4193 13.3775 47.2963 13.6235 47.0496C14.1161 46.557 14.1161 45.7583 13.6235 45.2664C13.3775 45.0204 13.0561 44.8981 12.7339 44.8981C12.597 44.8981 12.46 44.9205 12.3294 44.9645L8.1626 40.7978C8.31074 40.3582 8.21082 39.853 7.86074 39.5029C7.61477 39.257 7.29194 39.1333 6.96911 39.1333Z" fill="#27337B"/>
</svg>
