<svg width="25" height="24" viewBox="0 0 25 24" fill="none" xmlns="http://www.w3.org/2000/svg">
<path d="M12.1006 6C11.3589 6 10.6339 6.21993 10.0172 6.63199C9.40051 7.04404 8.91987 7.62971 8.63604 8.31494C8.35221 9.00016 8.27795 9.75416 8.42264 10.4816C8.56734 11.209 8.92449 11.8772 9.44894 12.4017C9.97338 12.9261 10.6416 13.2833 11.369 13.4279C12.0964 13.5726 12.8504 13.4984 13.5356 13.2145C14.2209 12.9307 14.8065 12.4501 15.2186 11.8334C15.6307 11.2167 15.8506 10.4917 15.8506 9.75C15.8506 8.75544 15.4555 7.80161 14.7522 7.09835C14.049 6.39509 13.0951 6 12.1006 6ZM12.1006 12C11.6556 12 11.2206 11.868 10.8506 11.6208C10.4805 11.3736 10.1922 11.0222 10.0219 10.611C9.85156 10.1999 9.807 9.7475 9.89382 9.31105C9.98064 8.87459 10.1949 8.47368 10.5096 8.15901C10.8243 7.84434 11.2252 7.63005 11.6616 7.54323C12.0981 7.45642 12.5505 7.50097 12.9616 7.67127C13.3728 7.84157 13.7242 8.12996 13.9714 8.49997C14.2186 8.86998 14.3506 9.30499 14.3506 9.75C14.3506 10.3467 14.1135 10.919 13.6916 11.341C13.2696 11.7629 12.6973 12 12.1006 12ZM12.1006 1.5C9.91331 1.50248 7.81633 2.37247 6.2697 3.91911C4.72306 5.46575 3.85307 7.56273 3.85059 9.75C3.85059 12.6938 5.2109 15.8138 7.78809 18.7734C8.94611 20.1108 10.2494 21.3151 11.674 22.3641C11.8001 22.4524 11.9504 22.4998 12.1043 22.4998C12.2583 22.4998 12.4085 22.4524 12.5346 22.3641C13.9566 21.3147 15.2574 20.1104 16.4131 18.7734C18.9865 15.8138 20.3506 12.6938 20.3506 9.75C20.3481 7.56273 19.4781 5.46575 17.9315 3.91911C16.3848 2.37247 14.2879 1.50248 12.1006 1.5ZM12.1006 20.8125C10.5509 19.5938 5.35059 15.1172 5.35059 9.75C5.35059 7.95979 6.06174 6.2429 7.32762 4.97703C8.59349 3.71116 10.3104 3 12.1006 3C13.8908 3 15.6077 3.71116 16.8736 4.97703C18.1394 6.2429 18.8506 7.95979 18.8506 9.75C18.8506 15.1153 13.6503 19.5938 12.1006 20.8125Z" fill="white"/>
</svg>
