<svg width="25" height="24" viewBox="0 0 25 24" fill="none" xmlns="http://www.w3.org/2000/svg">
<path d="M20.9478 14.8557L16.5312 12.8766L16.519 12.871C16.2897 12.7729 16.0396 12.7336 15.7913 12.7565C15.543 12.7794 15.3043 12.8639 15.0968 13.0022C15.0724 13.0184 15.0489 13.0359 15.0265 13.0547L12.7447 15.0001C11.299 14.2979 9.80653 12.8166 9.10434 11.3897L11.0525 9.07318C11.0712 9.04974 11.089 9.0263 11.1059 9.00099C11.2413 8.79409 11.3235 8.55692 11.345 8.31059C11.3666 8.06427 11.327 7.81642 11.2297 7.58912V7.57787L9.24497 3.1538C9.11629 2.85687 8.89502 2.60951 8.61421 2.44865C8.33339 2.2878 8.00808 2.22208 7.68684 2.2613C6.4165 2.42847 5.25045 3.05234 4.40647 4.01639C3.56249 4.98045 3.0983 6.21876 3.10059 7.50005C3.10059 14.9438 9.15684 21.0001 16.6006 21.0001C17.8819 21.0023 19.1202 20.5382 20.0843 19.6942C21.0483 18.8502 21.6722 17.6841 21.8393 16.4138C21.8786 16.0927 21.8131 15.7674 21.6524 15.4866C21.4917 15.2058 21.2445 14.9845 20.9478 14.8557ZM16.6006 19.5001C13.4191 19.4966 10.3688 18.2312 8.11915 15.9815C5.86947 13.7318 4.60407 10.6816 4.60059 7.50005C4.59707 6.58458 4.92689 5.69911 5.52847 5.00903C6.13005 4.31895 6.96225 3.87143 7.86966 3.75005C7.86929 3.7538 7.86929 3.75756 7.86966 3.7613L9.83841 8.16755L7.90059 10.4869C7.88093 10.5096 7.86306 10.5337 7.84716 10.5591C7.70608 10.7756 7.62331 11.0249 7.60689 11.2827C7.59046 11.5406 7.64093 11.7984 7.75341 12.031C8.60278 13.7682 10.3531 15.5054 12.109 16.3538C12.3434 16.4652 12.6026 16.5139 12.8614 16.4952C13.1202 16.4765 13.3697 16.3909 13.5856 16.2469C13.6097 16.2307 13.6328 16.2132 13.655 16.1944L15.934 14.2501L20.3403 16.2235C20.3403 16.2235 20.3478 16.2235 20.3506 16.2235C20.2307 17.1322 19.7839 17.9661 19.0936 18.5691C18.4034 19.1722 17.5171 19.5031 16.6006 19.5001Z" fill="white"/>
</svg>
