<svg width="25" height="24" viewBox="0 0 25 24" fill="none" xmlns="http://www.w3.org/2000/svg">
<path d="M20.3506 3.75H3.85059C3.45276 3.75 3.07123 3.90804 2.78993 4.18934C2.50862 4.47064 2.35059 4.85218 2.35059 5.25V18.75C2.35059 19.1478 2.50862 19.5294 2.78993 19.8107C3.07123 20.092 3.45276 20.25 3.85059 20.25H20.3506C20.7484 20.25 21.1299 20.092 21.4112 19.8107C21.6926 19.5294 21.8506 19.1478 21.8506 18.75V5.25C21.8506 4.85218 21.6926 4.47064 21.4112 4.18934C21.1299 3.90804 20.7484 3.75 20.3506 3.75ZM20.3506 11.25H15.8506V5.25H20.3506V11.25ZM3.85059 5.25H14.3506V18.75H3.85059V5.25ZM20.3506 18.75H15.8506V12.75H20.3506V18.75ZM16.9756 8.25C16.9756 8.0275 17.0416 7.80999 17.1652 7.62498C17.2888 7.43998 17.4645 7.29578 17.6701 7.21064C17.8756 7.12549 18.1018 7.10321 18.3201 7.14662C18.5383 7.19002 18.7387 7.29717 18.8961 7.4545C19.0534 7.61184 19.1606 7.81229 19.204 8.03052C19.2474 8.24875 19.2251 8.47495 19.1399 8.68052C19.0548 8.88609 18.9106 9.06179 18.7256 9.1854C18.5406 9.30902 18.3231 9.375 18.1006 9.375C17.8022 9.375 17.5161 9.25647 17.3051 9.0455C17.0941 8.83452 16.9756 8.54837 16.9756 8.25ZM19.2256 15.75C19.2256 15.9725 19.1596 16.19 19.036 16.375C18.9124 16.56 18.7367 16.7042 18.5311 16.7894C18.3255 16.8745 18.0993 16.8968 17.8811 16.8534C17.6629 16.81 17.4624 16.7028 17.3051 16.5455C17.1478 16.3882 17.0406 16.1877 16.9972 15.9695C16.9538 15.7512 16.9761 15.525 17.0612 15.3195C17.1464 15.1139 17.2906 14.9382 17.4756 14.8146C17.6606 14.691 17.8781 14.625 18.1006 14.625C18.399 14.625 18.6851 14.7435 18.8961 14.9545C19.1071 15.1655 19.2256 15.4516 19.2256 15.75ZM12.8271 15.5625C12.5844 14.6563 12.009 13.875 11.2156 13.3744C11.6369 12.9555 11.9244 12.421 12.0416 11.8386C12.1588 11.2562 12.1005 10.652 11.8739 10.1028C11.6474 9.55361 11.2629 9.08402 10.7692 8.75358C10.2754 8.42315 9.69469 8.24675 9.10059 8.24675C8.50648 8.24675 7.92575 8.42315 7.43202 8.75358C6.93829 9.08402 6.55378 9.55361 6.32724 10.1028C6.10071 10.652 6.04234 11.2562 6.15954 11.8386C6.27675 12.421 6.56424 12.9555 6.98559 13.3744C6.1927 13.8755 5.6174 14.6566 5.37402 15.5625C5.3243 15.7552 5.35315 15.9598 5.45425 16.1312C5.55534 16.3026 5.72039 16.4268 5.91309 16.4766C6.10578 16.5263 6.31034 16.4974 6.48176 16.3963C6.65318 16.2952 6.77742 16.1302 6.82715 15.9375C7.07465 14.9766 8.05152 14.25 9.10059 14.25C10.1496 14.25 11.1275 14.9747 11.374 15.9375C11.4238 16.1302 11.548 16.2952 11.7194 16.3963C11.8908 16.4974 12.0954 16.5263 12.2881 16.4766C12.4808 16.4268 12.6458 16.3026 12.7469 16.1312C12.848 15.9598 12.8769 15.7552 12.8271 15.5625ZM7.60059 11.25C7.60059 10.9533 7.68856 10.6633 7.85338 10.4166C8.0182 10.17 8.25247 9.97771 8.52656 9.86418C8.80065 9.75065 9.10225 9.72094 9.39322 9.77882C9.68419 9.8367 9.95147 9.97956 10.1612 10.1893C10.371 10.3991 10.5139 10.6664 10.5718 10.9574C10.6296 11.2483 10.5999 11.5499 10.4864 11.824C10.3729 12.0981 10.1806 12.3324 9.93394 12.4972C9.68727 12.662 9.39726 12.75 9.10059 12.75C8.70276 12.75 8.32123 12.592 8.03993 12.3107C7.75862 12.0294 7.60059 11.6478 7.60059 11.25Z" fill="white"/>
</svg>
